<svg width="16" height="15" xmlns="http://www.w3.org/2000/svg" xmlns:xlink="http://www.w3.org/1999/xlink" overflow="hidden"><defs><clipPath id="clip0"><rect x="63" y="453" width="16" height="15"/></clipPath></defs><g clip-path="url(#clip0)" transform="translate(-63 -453)"><path d="M5 0C3.27497 0.00206632 1.87707 1.39997 1.875 3.125L1.875 14.375C1.87527 14.7202 2.15531 14.9998 2.50048 14.9995 2.6261 14.9994 2.74877 14.9615 2.8525 14.8906L4.16875 13.9913 5.485 14.8906C5.69786 15.0364 5.97839 15.0364 6.19125 14.8906L7.50375 13.9913 8.81625 14.8906C9.02925 15.0367 9.31013 15.0367 9.52313 14.8906L10.8356 13.9919 12.1481 14.89C12.4334 15.0843 12.8222 15.0106 13.0166 14.7253 13.0869 14.6221 13.1247 14.5 13.125 14.375L13.125 3.125C13.1229 1.39997 11.7251 0.00206632 10 1.11023e-15ZM8.75 8.75 5 8.75C4.65483 8.75 4.375 8.47019 4.375 8.125 4.375 7.77981 4.65483 7.5 5 7.5L8.75 7.5C9.09519 7.5 9.375 7.77981 9.375 8.125 9.375 8.47019 9.09519 8.75 8.75 8.75ZM10.625 5.625C10.625 5.97018 10.3452 6.25 10 6.25L5 6.25C4.65483 6.25 4.375 5.97018 4.375 5.625 4.375 5.27982 4.65483 5 5 5L10 5C10.3452 5 10.625 5.27982 10.625 5.625Z" fill="#6C1D89" transform="matrix(1.06667 0 0 1 63 453)"/></g></svg>