<svg width="16" height="16" xmlns="http://www.w3.org/2000/svg" xmlns:xlink="http://www.w3.org/1999/xlink" overflow="hidden"><defs><clipPath id="clip0"><rect x="63" y="409" width="16" height="16"/></clipPath></defs><g clip-path="url(#clip0)" transform="translate(-63 -409)"><path d="M63.194 414.701C62.901 414.158 62.9405 413.495 63.296 412.991 63.5808 412.573 63.9623 412.23 64.408 411.991L69.4087 409.388C70.4061 408.869 71.5939 408.869 72.5913 409.388L77.5913 411.993C78.0371 412.232 78.4185 412.575 78.7033 412.993 79.0588 413.497 79.0983 414.16 78.8053 414.703 78.4901 415.3 77.8692 415.671 77.1947 415.667L64.8053 415.667C64.1301 415.671 63.5088 415.299 63.194 414.701ZM78.3333 423.667C78.3333 422.93 77.7364 422.333 77 422.333L77 417 75.6667 417 75.6667 422.333 73.6667 422.333 73.6667 417 72.3333 417 72.3333 422.333 69.6667 422.333 69.6667 417 68.3333 417 68.3333 422.333 66.3333 422.333 66.3333 417 65 417 65 422.333C64.2636 422.333 63.6667 422.93 63.6667 423.667 63.2985 423.667 63 423.965 63 424.333 63 424.702 63.2985 425 63.6667 425L78.3333 425C78.7015 425 79 424.702 79 424.333 79 423.965 78.7015 423.667 78.3333 423.667Z" fill="#6C1D89"/></g></svg>