<svg width="16" height="17" xmlns="http://www.w3.org/2000/svg" xmlns:xlink="http://www.w3.org/1999/xlink" overflow="hidden"><defs><clipPath id="clip0"><rect x="63" y="664" width="16" height="17"/></clipPath></defs><g clip-path="url(#clip0)" transform="translate(-63 -664)"><path d="M12.6667 2.66667 11.9333 2.66667C11.6144 1.11572 10.2501 0.00199886 8.66667 5.92119e-16L7.33333 0C5.74993 0.00199886 4.38562 1.11572 4.06667 2.66667L3.33333 2.66667C1.4933 2.66887 0.00220408 4.15997 1.18424e-15 6L0 8 16 8 16 6C15.9978 4.15997 14.5067 2.66887 12.6667 2.66667ZM5.456 2.66667C5.7375 1.87043 6.48881 1.33683 7.33333 1.33333L8.66667 1.33333C9.5112 1.33683 10.2625 1.87043 10.544 2.66667Z" fill="#6C1D89" transform="matrix(1 0 0 1.0625 63 664)"/><path d="M8.66667 10C8.66667 10.3682 8.3682 10.6667 8 10.6667 7.6318 10.6667 7.33333 10.3682 7.33333 10L7.33333 9.33333 0 9.33333 0 12.6667C0.00220408 14.5067 1.4933 15.9978 3.33333 16L12.6667 16C14.5067 15.9978 15.9978 14.5067 16 12.6667L16 9.33333 8.66667 9.33333Z" fill="#6C1D89" transform="matrix(1 0 0 1.0625 63 664)"/></g></svg>