<svg width="16" height="16" xmlns="http://www.w3.org/2000/svg" xmlns:xlink="http://www.w3.org/1999/xlink" overflow="hidden"><defs><clipPath id="clip0"><rect x="63" y="621" width="16" height="16"/></clipPath></defs><g clip-path="url(#clip0)" transform="translate(-63 -621)"><path d="M75.6667 621 66.3333 621C64.4933 621.002 63.0022 622.493 63 624.333L63 633.667C63.0022 635.507 64.4933 636.998 66.3333 637L66.3333 635C66.3333 632.423 68.4227 630.333 71 630.333 73.5773 630.333 75.6667 632.423 75.6667 635L75.6667 637C77.5067 636.998 78.9978 635.507 79 633.667L79 624.333C78.9978 622.493 77.5067 621.002 75.6667 621ZM71 629C69.5272 629 68.3333 627.806 68.3333 626.333 68.3333 624.861 69.5272 623.667 71 623.667 72.4727 623.667 73.6667 624.861 73.6667 626.333 73.6667 627.806 72.4727 629 71 629Z" fill="#6C1D89"/><path d="M72.3333 626.333C72.3333 627.07 71.7364 627.667 71 627.667 70.2636 627.667 69.6667 627.07 69.6667 626.333 69.6667 625.597 70.2636 625 71 625 71.7364 625 72.3333 625.597 72.3333 626.333Z" fill="#6C1D89"/><path d="M71 631.667C69.16 631.669 67.6689 633.16 67.6667 635L67.6667 637 74.3333 637 74.3333 635C74.3311 633.16 72.8401 631.669 71 631.667Z" fill="#6C1D89"/></g></svg>