<svg width="14" height="14" xmlns="http://www.w3.org/2000/svg" xmlns:xlink="http://www.w3.org/1999/xlink" overflow="hidden"><defs><clipPath id="clip0"><rect x="64" y="495" width="14" height="14"/></clipPath></defs><g clip-path="url(#clip0)" transform="translate(-64 -495)"><path d="M71 495C69.2878 495.005 67.6364 495.636 66.3567 496.773L65.5791 495.996C65.3512 495.768 64.9819 495.768 64.7541 495.996 64.6448 496.105 64.5834 496.254 64.5833 496.408L64.5833 499.083C64.5833 499.405 64.8445 499.667 65.1667 499.667L67.8418 499.667C68.164 499.667 68.4251 499.405 68.425 499.083 68.425 498.929 68.3636 498.78 68.2542 498.671L67.5922 498.009C69.7968 496.126 73.1107 496.386 74.994 498.591 75.8398 499.581 76.2874 500.85 76.25 502.152 76.1671 505.05 73.7504 507.332 70.8521 507.249 68.3063 507.177 66.18 505.287 65.8083 502.768 65.7518 502.331 65.3813 502.003 64.9409 502L64.9409 502C64.4613 501.994 64.0674 502.378 64.0612 502.857 64.0607 502.895 64.0627 502.933 64.0671 502.97 64.57 506.53 67.6841 509.132 71.2765 508.995 74.9119 508.82 77.8196 505.912 77.9948 502.276 78.1433 498.409 75.1286 495.154 71.2613 495.005 71.1742 495.002 71.0871 495 71 495Z" fill="#6C1D89"/><path d="M70.7083 499.083 70.7083 499.083C70.2251 499.083 69.8333 499.475 69.8333 499.958L69.8333 502.463C69.8334 502.772 69.9564 503.069 70.1752 503.287L71.2211 504.333C71.5687 504.669 72.1226 504.659 72.4583 504.312 72.7858 503.973 72.7858 503.435 72.4583 503.096L71.5833 502.221 71.5833 499.958C71.5833 499.475 71.1916 499.083 70.7083 499.083Z" fill="#6C1D89"/></g></svg>