<svg width="14" height="14" xmlns="http://www.w3.org/2000/svg" xmlns:xlink="http://www.w3.org/1999/xlink" overflow="hidden"><defs><clipPath id="clip0"><rect x="64" y="369" width="14" height="14"/></clipPath></defs><g clip-path="url(#clip0)" transform="translate(-64 -369)"><path d="M77.9417 375.672C77.4436 371.838 73.932 369.134 70.0982 369.632 66.6064 370.085 63.995 373.062 64 376.583 63.9932 378.508 64.7876 380.35 66.1927 381.665 66.7244 382.158 67.4248 382.427 68.1492 382.417L73.8467 382.417C74.612 382.418 75.3472 382.119 75.8936 381.583 77.4723 380.047 78.2318 377.855 77.9417 375.672ZM75.0781 380.747C74.7499 381.07 74.3074 381.251 73.8467 381.25L68.1492 381.25C67.723 381.259 67.3095 381.104 66.9937 380.818 65.8231 379.721 65.1612 378.187 65.1667 376.583 65.1678 374.922 65.8759 373.341 67.1138 372.233 68.1773 371.274 69.5598 370.746 70.9918 370.75 71.2207 370.75 71.4493 370.763 71.6767 370.789 74.8749 371.16 77.1665 374.054 76.795 377.252 76.6408 378.58 76.0346 379.815 75.0781 380.75ZM68.5541 379.083C68.7844 379.308 68.7884 379.678 68.5628 379.908 68.3373 380.139 67.9678 380.143 67.7374 379.917 65.8962 378.114 65.8657 375.159 67.6692 373.318 68.5463 372.422 69.7466 371.917 71 371.917 71.2231 371.917 71.4459 371.932 71.6667 371.964 71.9856 372.01 72.2069 372.306 72.1609 372.625 72.1609 372.625 72.1608 372.625 72.1608 372.625 72.1192 372.941 71.8294 373.163 71.5135 373.121 71.509 373.121 71.5045 373.12 71.4999 373.12 69.5863 372.846 67.8135 374.176 67.5402 376.089 67.3827 377.192 67.7592 378.303 68.5541 379.083ZM75.6194 375.917C75.6509 376.137 75.6667 376.36 75.6667 376.583 75.6705 377.839 75.1634 379.043 74.262 379.918 74.0313 380.143 73.6615 380.139 73.436 379.908 73.2105 379.678 73.2147 379.308 73.4453 379.082 74.2448 378.303 74.623 377.188 74.4627 376.083 74.4166 375.764 74.638 375.468 74.957 375.422 75.2761 375.376 75.5722 375.598 75.6182 375.917ZM72.1235 376.285C72.299 376.916 71.9297 377.569 71.2987 377.745 70.6677 377.92 70.0139 377.551 69.8383 376.92 69.6629 376.289 70.0322 375.635 70.6632 375.46 70.8711 375.402 71.0908 375.402 71.2987 375.46L73.5042 373.254C73.7281 373.023 74.0973 373.016 74.3291 373.24 74.5608 373.464 74.5673 373.833 74.3434 374.065 74.3387 374.07 74.3339 374.074 74.3291 374.079Z" fill="#6C1D89"/></g></svg>